<svg xmlns="http://www.w3.org/2000/svg" width="1200" height="300" viewBox="0 0 1200 300" preserveAspectRatio="xMidYMid slice">
  <defs>
    <radialGradient id="galaxy-core" cx="50%" cy="50%" r="50%">
      <stop offset="0%" stop-color="#c4b5fd" stop-opacity="0.65"/>
      <stop offset="18%" stop-color="#8b5cf6" stop-opacity="0.45"/>
      <stop offset="48%" stop-color="#4c1d95" stop-opacity="0.2"/>
      <stop offset="100%" stop-color="#000000" stop-opacity="0"/>
    </radialGradient>
    <radialGradient id="nebula-pink" cx="50%" cy="50%" r="50%">
      <stop offset="0%" stop-color="#ec4899" stop-opacity="0.32"/>
      <stop offset="100%" stop-color="#000000" stop-opacity="0"/>
    </radialGradient>
    <radialGradient id="nebula-blue" cx="50%" cy="50%" r="50%">
      <stop offset="0%" stop-color="#38bdf8" stop-opacity="0.28"/>
      <stop offset="100%" stop-color="#000000" stop-opacity="0"/>
    </radialGradient>
    <radialGradient id="pulsar-glow" cx="50%" cy="50%" r="50%">
      <stop offset="0%" stop-color="#ffffff" stop-opacity="1"/>
      <stop offset="18%" stop-color="#ede9fe" stop-opacity="0.9"/>
      <stop offset="50%" stop-color="#a78bfa" stop-opacity="0.4"/>
      <stop offset="100%" stop-color="#7c3aed" stop-opacity="0"/>
    </radialGradient>
    <linearGradient id="beam-h" x1="0%" y1="50%" x2="100%" y2="50%">
      <stop offset="0%" stop-color="#ffffff" stop-opacity="0"/>
      <stop offset="50%" stop-color="#e9d5ff" stop-opacity="0.85"/>
      <stop offset="100%" stop-color="#ffffff" stop-opacity="0"/>
    </linearGradient>
    <linearGradient id="beam-v" x1="50%" y1="0%" x2="50%" y2="100%">
      <stop offset="0%" stop-color="#ffffff" stop-opacity="0"/>
      <stop offset="50%" stop-color="#e9d5ff" stop-opacity="0.55"/>
      <stop offset="100%" stop-color="#ffffff" stop-opacity="0"/>
    </linearGradient>
    <filter id="soft-glow" x="-30%" y="-30%" width="160%" height="160%">
      <feGaussianBlur in="SourceGraphic" stdDeviation="1.8" result="blur"/>
      <feMerge>
        <feMergeNode in="blur"/>
        <feMergeNode in="SourceGraphic"/>
      </feMerge>
    </filter>
    <filter id="text-glow" x="-20%" y="-20%" width="140%" height="140%">
      <feGaussianBlur in="SourceGraphic" stdDeviation="3" result="blur"/>
      <feFlood flood-color="#a78bfa" flood-opacity="0.35"/>
      <feComposite in2="blur" operator="in" result="violetGlow"/>
      <feMerge>
        <feMergeNode in="violetGlow"/>
        <feMergeNode in="SourceGraphic"/>
      </feMerge>
    </filter>
  </defs>

  <rect width="1200" height="300" fill="#02010a"/>

  <g transform="rotate(-12 620 158)">
    <ellipse cx="620" cy="158" rx="540" ry="92" fill="url(#galaxy-core)"/>
    <ellipse cx="430" cy="148" rx="210" ry="58" fill="url(#nebula-pink)"/>
    <ellipse cx="800" cy="172" rx="230" ry="62" fill="url(#nebula-blue)"/>
  </g>

  <g fill="#ffffff">
    <circle cx="180" cy="58" r="1.6" opacity="1"/>
    <circle cx="710" cy="48" r="1.5" opacity="1"/>
    <circle cx="430" cy="226" r="1.4" opacity="0.95"/>
    <circle cx="55" cy="202" r="1.3" opacity="0.9"/>
    <circle cx="1085" cy="242" r="1.4" opacity="0.95"/>
    <circle cx="320" cy="110" r="1.2" opacity="0.85"/>
    <circle cx="540" cy="80" r="1.1" opacity="0.85"/>
    <circle cx="860" cy="100" r="1.2" opacity="0.85"/>
    <circle cx="1140" cy="120" r="1.1" opacity="0.8"/>

    <circle cx="32" cy="50" r="0.8" opacity="0.7"/>
    <circle cx="92" cy="86" r="0.7" opacity="0.6"/>
    <circle cx="152" cy="34" r="0.6" opacity="0.55"/>
    <circle cx="218" cy="92" r="0.7" opacity="0.65"/>
    <circle cx="252" cy="158" r="0.8" opacity="0.7"/>
    <circle cx="290" cy="40" r="0.6" opacity="0.55"/>
    <circle cx="358" cy="74" r="0.7" opacity="0.65"/>
    <circle cx="392" cy="184" r="0.7" opacity="0.6"/>
    <circle cx="468" cy="48" r="0.7" opacity="0.65"/>
    <circle cx="496" cy="118" r="0.8" opacity="0.7"/>
    <circle cx="568" cy="206" r="0.7" opacity="0.6"/>
    <circle cx="612" cy="44" r="0.6" opacity="0.5"/>
    <circle cx="648" cy="244" r="0.7" opacity="0.65"/>
    <circle cx="676" cy="122" r="0.8" opacity="0.7"/>
    <circle cx="746" cy="208" r="0.7" opacity="0.6"/>
    <circle cx="788" cy="62" r="0.6" opacity="0.55"/>
    <circle cx="822" cy="174" r="0.8" opacity="0.7"/>
    <circle cx="884" cy="40" r="0.7" opacity="0.65"/>
    <circle cx="924" cy="220" r="0.7" opacity="0.6"/>
    <circle cx="956" cy="86" r="0.6" opacity="0.55"/>
    <circle cx="1012" cy="252" r="0.7" opacity="0.65"/>
    <circle cx="1062" cy="48" r="0.8" opacity="0.7"/>
    <circle cx="1118" cy="184" r="0.7" opacity="0.65"/>
    <circle cx="1172" cy="78" r="0.7" opacity="0.6"/>
    <circle cx="1156" cy="262" r="0.6" opacity="0.55"/>

    <circle cx="14" cy="124" r="0.5" opacity="0.45"/>
    <circle cx="68" cy="244" r="0.5" opacity="0.5"/>
    <circle cx="108" cy="170" r="0.6" opacity="0.55"/>
    <circle cx="148" cy="252" r="0.5" opacity="0.45"/>
    <circle cx="196" cy="276" r="0.5" opacity="0.5"/>
    <circle cx="234" cy="14" r="0.5" opacity="0.5"/>
    <circle cx="278" cy="208" r="0.6" opacity="0.55"/>
    <circle cx="346" cy="262" r="0.5" opacity="0.5"/>
    <circle cx="378" cy="20" r="0.5" opacity="0.45"/>
    <circle cx="420" cy="100" r="0.5" opacity="0.45"/>
    <circle cx="510" cy="270" r="0.5" opacity="0.5"/>
    <circle cx="558" cy="20" r="0.5" opacity="0.45"/>
    <circle cx="588" cy="158" r="0.5" opacity="0.5"/>
    <circle cx="640" cy="98" r="0.5" opacity="0.45"/>
    <circle cx="690" cy="158" r="0.5" opacity="0.5"/>
    <circle cx="724" cy="276" r="0.5" opacity="0.5"/>
    <circle cx="772" cy="22" r="0.5" opacity="0.45"/>
    <circle cx="814" cy="252" r="0.5" opacity="0.5"/>
    <circle cx="852" cy="14" r="0.5" opacity="0.5"/>
    <circle cx="908" cy="262" r="0.5" opacity="0.5"/>
    <circle cx="942" cy="160" r="0.5" opacity="0.45"/>
    <circle cx="990" cy="20" r="0.5" opacity="0.5"/>
    <circle cx="1032" cy="118" r="0.5" opacity="0.45"/>
    <circle cx="1098" cy="14" r="0.5" opacity="0.5"/>
    <circle cx="1138" cy="220" r="0.5" opacity="0.5"/>
    <circle cx="1182" cy="146" r="0.5" opacity="0.45"/>
  </g>

  <text x="80" y="195"
        font-family="ui-sans-serif, system-ui, -apple-system, BlinkMacSystemFont, 'Segoe UI', Roboto, sans-serif"
        font-size="120"
        font-weight="700"
        fill="#ffffff"
        letter-spacing="-4"
        filter="url(#text-glow)">Pulsar</text>

  <g transform="translate(1020, 150)" filter="url(#soft-glow)">
    <rect x="-200" y="-1.5" width="400" height="3" fill="url(#beam-h)" rx="1.5"/>
    <rect x="-1.5" y="-110" width="3" height="220" fill="url(#beam-v)" rx="1.5"/>
    <circle cx="0" cy="0" r="62" fill="url(#pulsar-glow)"/>
    <circle cx="0" cy="0" r="5.5" fill="#ffffff"/>
  </g>
</svg>
