<?xml version="1.0" encoding="UTF-8"?>
<svg xmlns="http://www.w3.org/2000/svg" viewBox="0 0 1080 1580" font-family="system-ui, -apple-system, 'Segoe UI', sans-serif">
	<defs>
		<marker id="arrow" viewBox="0 0 10 10" refX="9" refY="5" markerWidth="7" markerHeight="7" orient="auto-start-reverse">
			<path d="M 0 0 L 10 5 L 0 10 z" fill="#333"/>
		</marker>
		<pattern id="grid" width="22" height="22" patternUnits="userSpaceOnUse">
			<path d="M 22 0 L 0 0 L 0 22" fill="none" stroke="#EAE7DC" stroke-width="0.5"/>
		</pattern>
	</defs>

	<rect width="1080" height="1580" fill="#FBFAF4"/>
	<rect width="1080" height="1580" fill="url(#grid)"/>

	<!-- Title -->
	<g>
		<rect x="62" y="58" width="294" height="62" fill="#FCE7A2" rx="6"/>
		<text x="80" y="108" font-size="58" font-weight="900" fill="#1A1A1A">Pulsar</text>
		<text x="376" y="108" font-size="58" font-weight="700" fill="#1A1A1A">Agent Framework</text>
	</g>

	<!-- =========================== ROW 1 =========================== -->

	<!-- Dashboard Users -->
	<g>
		<rect x="40" y="160" width="510" height="360" rx="14" fill="#F5E8FA" stroke="#C9A8DE" stroke-width="2"/>
		<rect x="40" y="160" width="510" height="46" rx="14" fill="#E8D5F2"/>
		<rect x="40" y="188" width="510" height="18" fill="#E8D5F2"/>
		<text x="295" y="192" font-size="22" font-weight="800" fill="#1A1A1A" text-anchor="middle">Dashboard Users</text>

		<g transform="translate(120, 280)">
			<circle cx="0" cy="0" r="42" fill="#7AB8E0" stroke="#1A1A1A" stroke-width="2.5"/>
			<ellipse cx="0" cy="0" rx="42" ry="16" fill="none" stroke="#1A1A1A" stroke-width="1.5"/>
			<line x1="0" y1="-42" x2="0" y2="42" stroke="#1A1A1A" stroke-width="1.5"/>
			<path d="M -38 -16 Q 0 -38 38 -16" fill="none" stroke="#1A1A1A" stroke-width="1.5"/>
			<path d="M -38 16 Q 0 38 38 16" fill="none" stroke="#1A1A1A" stroke-width="1.5"/>
		</g>
		<text x="120" y="362" font-size="16" font-weight="800" text-anchor="middle">Web</text>

		<g transform="translate(275, 245)">
			<rect x="-22" y="0" width="44" height="74" rx="6" fill="#DDD" stroke="#1A1A1A" stroke-width="2.5"/>
			<rect x="-18" y="9" width="36" height="52" fill="#7AB8E0"/>
			<circle cx="0" cy="68" r="2.5" fill="#1A1A1A"/>
		</g>
		<text x="275" y="362" font-size="16" font-weight="800" text-anchor="middle">Mobile</text>

		<g transform="translate(440, 250)">
			<rect x="-50" y="0" width="100" height="64" rx="4" fill="#DDD" stroke="#1A1A1A" stroke-width="2.5"/>
			<rect x="-45" y="5" width="90" height="50" fill="#7AB8E0"/>
			<rect x="-18" y="64" width="36" height="10" fill="#DDD" stroke="#1A1A1A" stroke-width="2"/>
			<line x1="-26" y1="76" x2="26" y2="76" stroke="#1A1A1A" stroke-width="2.5" stroke-linecap="round"/>
		</g>
		<text x="440" y="362" font-size="16" font-weight="800" text-anchor="middle">PC</text>

		<text x="295" y="410" font-size="15" fill="#333" text-anchor="middle">Operators access Pulsar via web, mobile, or</text>
		<text x="295" y="432" font-size="15" fill="#333" text-anchor="middle">desktop to browse reports, content drafts,</text>
		<text x="295" y="454" font-size="15" fill="#333" text-anchor="middle">and the graph explorer.</text>
		<text x="295" y="488" font-size="13" fill="#777" font-style="italic" text-anchor="middle">Session-gated by NextAuth GitHub allowlist.</text>
	</g>

	<!-- Public Sources -->
	<g>
		<rect x="580" y="160" width="240" height="270" rx="14" fill="#E1F1E8" stroke="#5BA89A" stroke-width="2"/>
		<rect x="580" y="160" width="240" height="46" rx="14" fill="#C8E6D9"/>
		<rect x="580" y="188" width="240" height="18" fill="#C8E6D9"/>
		<text x="700" y="192" font-size="20" font-weight="800" fill="#1A1A1A" text-anchor="middle">Public Sources</text>

		<g transform="translate(660, 260)">
			<circle cx="0" cy="0" r="22" fill="#4A90C2" stroke="#1A1A1A" stroke-width="2.5"/>
			<text x="0" y="5" font-size="13" font-weight="800" fill="white" text-anchor="middle">HN</text>
		</g>
		<g transform="translate(740, 260)">
			<circle cx="0" cy="0" r="22" fill="#4A90C2" stroke="#1A1A1A" stroke-width="2.5"/>
			<text x="0" y="5" font-size="13" font-weight="800" fill="white" text-anchor="middle">RDT</text>
		</g>

		<text x="700" y="316" font-size="13" fill="#333" text-anchor="middle">HackerNews, Reddit, GitHub,</text>
		<text x="700" y="334" font-size="13" fill="#333" text-anchor="middle">arXiv, Hashnode, Dev.to,</text>
		<text x="700" y="352" font-size="13" fill="#333" text-anchor="middle">Medium, RSS via source</text>
		<text x="700" y="370" font-size="13" fill="#333" text-anchor="middle">adapters. SHA-256 dedup at</text>
		<text x="700" y="388" font-size="13" fill="#333" text-anchor="middle">ingest.</text>
	</g>

	<!-- Wayback Archive -->
	<g>
		<rect x="840" y="160" width="210" height="270" rx="14" fill="#EAF5E4" stroke="#A8C898" stroke-width="2"/>
		<rect x="840" y="160" width="210" height="46" rx="14" fill="#D4EBC8"/>
		<rect x="840" y="188" width="210" height="18" fill="#D4EBC8"/>
		<text x="945" y="192" font-size="18" font-weight="800" fill="#1A1A1A" text-anchor="middle">Wayback Archive</text>

		<g transform="translate(905, 260)">
			<rect x="-28" y="-22" width="56" height="46" rx="3" fill="#C29A6B" stroke="#1A1A1A" stroke-width="2.5"/>
			<line x1="-28" y1="-8" x2="28" y2="-8" stroke="#1A1A1A" stroke-width="1.5"/>
			<line x1="-28" y1="4" x2="28" y2="4" stroke="#1A1A1A" stroke-width="1.5"/>
			<line x1="-28" y1="16" x2="28" y2="16" stroke="#1A1A1A" stroke-width="1.5"/>
		</g>
		<g transform="translate(980, 260)">
			<rect x="-28" y="-22" width="56" height="46" rx="3" fill="#C29A6B" stroke="#1A1A1A" stroke-width="2.5"/>
			<line x1="-28" y1="-8" x2="28" y2="-8" stroke="#1A1A1A" stroke-width="1.5"/>
			<line x1="-28" y1="4" x2="28" y2="4" stroke="#1A1A1A" stroke-width="1.5"/>
			<line x1="-28" y1="16" x2="28" y2="16" stroke="#1A1A1A" stroke-width="1.5"/>
		</g>

		<text x="945" y="320" font-size="13" fill="#333" text-anchor="middle">Historical backfill via CDX</text>
		<text x="945" y="338" font-size="13" fill="#333" text-anchor="middle">walk, reaching back to</text>
		<text x="945" y="356" font-size="13" fill="#333" text-anchor="middle">2022-12-01. Composite</text>
		<text x="945" y="374" font-size="13" fill="#333" text-anchor="middle">hash dedup keeps it from</text>
		<text x="945" y="392" font-size="13" fill="#333" text-anchor="middle">colliding with live ingest.</text>
	</g>

	<!-- =========================== ROW 2 =========================== -->

	<!-- Scheduler (Load Balancer slot) -->
	<g>
		<rect x="40" y="560" width="510" height="200" rx="14" fill="#C9E6E0" stroke="#5BA89A" stroke-width="2"/>
		<rect x="40" y="560" width="200" height="200" rx="14" fill="#7FC4B4"/>
		<rect x="220" y="560" width="20" height="200" fill="#7FC4B4"/>
		<text x="140" y="610" font-size="24" font-weight="900" fill="#1A1A1A" text-anchor="middle">Scheduler</text>

		<g transform="translate(140, 685)">
			<circle cx="0" cy="0" r="42" fill="#FCE7A2" stroke="#1A1A1A" stroke-width="2.5"/>
			<line x1="0" y1="0" x2="0" y2="-28" stroke="#1A1A1A" stroke-width="3" stroke-linecap="round"/>
			<line x1="0" y1="0" x2="22" y2="8" stroke="#1A1A1A" stroke-width="3" stroke-linecap="round"/>
			<circle cx="0" cy="0" r="3" fill="#1A1A1A"/>
			<line x1="0" y1="-38" x2="0" y2="-34" stroke="#1A1A1A" stroke-width="2"/>
			<line x1="34" y1="0" x2="38" y2="0" stroke="#1A1A1A" stroke-width="2"/>
			<line x1="0" y1="34" x2="0" y2="38" stroke="#1A1A1A" stroke-width="2"/>
			<line x1="-34" y1="0" x2="-38" y2="0" stroke="#1A1A1A" stroke-width="2"/>
		</g>

		<text x="395" y="610" font-size="15" fill="#333" text-anchor="middle">node-cron runs daily at 05:30,</text>
		<text x="395" y="634" font-size="15" fill="#333" text-anchor="middle">then queues live scrape and</text>
		<text x="395" y="658" font-size="15" fill="#333" text-anchor="middle">pipelines in sequence.</text>
		<text x="395" y="694" font-size="14" fill="#666" font-style="italic" text-anchor="middle">When ENABLE_BACKFILL=true,</text>
		<text x="395" y="715" font-size="14" fill="#666" font-style="italic" text-anchor="middle">also enqueues backfill jobs.</text>
	</g>

	<!-- Identity Provider (NextAuth + GitHub) -->
	<g>
		<rect x="580" y="580" width="470" height="180" rx="14" fill="#FAE2D8" stroke="#E89880" stroke-width="2"/>
		<rect x="580" y="580" width="470" height="46" rx="14" fill="#F4C5B5"/>
		<rect x="580" y="608" width="470" height="18" fill="#F4C5B5"/>
		<text x="815" y="612" font-size="20" font-weight="800" fill="#1A1A1A" text-anchor="middle">Identity (NextAuth + GitHub)</text>

		<text x="610" y="656" font-size="15" fill="#333">Verifies operator identity via</text>
		<text x="610" y="680" font-size="15" fill="#333">GitHub OAuth. Enforces the</text>
		<text x="610" y="704" font-size="15" fill="#333">.context/profile.md allowlist</text>
		<text x="610" y="728" font-size="15" fill="#333">on every sign-in.</text>

		<g transform="translate(965, 692)">
			<path d="M 0 -42 L 34 -30 L 34 6 Q 34 32 0 44 Q -34 32 -34 6 L -34 -30 Z" fill="#7AC07A" stroke="#1A1A1A" stroke-width="2.5"/>
			<path d="M -14 0 L -4 12 L 16 -12" fill="none" stroke="white" stroke-width="5" stroke-linecap="round" stroke-linejoin="round"/>
		</g>
	</g>

	<!-- =========================== ROW 3: Web App (API Gateway slot) =========================== -->
	<g>
		<rect x="40" y="790" width="1010" height="130" rx="14" fill="#FEF5D1" stroke="#E5C870" stroke-width="2"/>
		<rect x="40" y="790" width="190" height="130" rx="14" fill="#FCE7A2"/>
		<rect x="210" y="790" width="20" height="130" fill="#FCE7A2"/>
		<text x="135" y="845" font-size="22" font-weight="900" fill="#1A1A1A" text-anchor="middle">Next.js</text>
		<text x="135" y="875" font-size="22" font-weight="900" fill="#1A1A1A" text-anchor="middle">Web App</text>

		<text x="260" y="836" font-size="16" fill="#333">Single entry point for operator browsing. Dashboard, reports, article</text>
		<text x="260" y="860" font-size="16" fill="#333">feed, graph explorer, content drafts review. On-demand PDF via</text>
		<text x="260" y="884" font-size="16" fill="#333">Puppeteer. Charts via Recharts.</text>

		<g transform="translate(890, 855)">
			<circle cx="0" cy="0" r="32" fill="#4A90C2" stroke="#1A1A1A" stroke-width="2.5"/>
			<circle cx="0" cy="0" r="16" fill="#FEF5D1"/>
			<text x="0" y="5" font-size="13" font-weight="800" fill="#1A1A1A" text-anchor="middle">WEB</text>
		</g>
		<g transform="translate(985, 855)">
			<circle cx="0" cy="0" r="32" fill="#4A90C2" stroke="#1A1A1A" stroke-width="2.5"/>
			<circle cx="0" cy="0" r="16" fill="#FEF5D1"/>
			<text x="0" y="5" font-size="13" font-weight="800" fill="#1A1A1A" text-anchor="middle">API</text>
		</g>
	</g>

	<!-- =========================== ROW 4: Core Workers + Pipeline Runner =========================== -->

	<!-- Pulsar Core Workers container -->
	<g>
		<rect x="40" y="950" width="660" height="300" rx="14" fill="#E1F1E8" stroke="#5BA89A" stroke-width="2"/>
		<rect x="40" y="950" width="660" height="46" rx="14" fill="#C8E6D9"/>
		<rect x="40" y="978" width="660" height="18" fill="#C8E6D9"/>
		<text x="370" y="982" font-size="22" font-weight="900" fill="#1A1A1A" text-anchor="middle">Pulsar Core Workers</text>

		<text x="370" y="1020" font-size="14" fill="#333" text-anchor="middle">Long-running processes that own data collection. Postgres advisory</text>
		<text x="370" y="1040" font-size="14" fill="#333" text-anchor="middle">locks keep live scrape and backfill from blocking each other.</text>

		<!-- Sub-box: Scraper -->
		<g>
			<rect x="60" y="1060" width="300" height="170" rx="10" fill="#FFFFFF" stroke="#7FC4B4" stroke-width="2"/>
			<rect x="60" y="1060" width="300" height="32" rx="10" fill="#D4EBC8"/>
			<rect x="60" y="1080" width="300" height="12" fill="#D4EBC8"/>
			<text x="210" y="1082" font-size="16" font-weight="800" fill="#1A1A1A" text-anchor="middle">Scraper</text>

			<g transform="translate(100, 1145)">
				<circle cx="0" cy="0" r="20" fill="#7FC4B4" stroke="#1A1A1A" stroke-width="2.5"/>
				<circle cx="0" cy="0" r="7" fill="#FFF"/>
				<line x1="0" y1="-22" x2="0" y2="-28" stroke="#1A1A1A" stroke-width="2.5"/>
				<line x1="0" y1="22" x2="0" y2="28" stroke="#1A1A1A" stroke-width="2.5"/>
				<line x1="-22" y1="0" x2="-28" y2="0" stroke="#1A1A1A" stroke-width="2.5"/>
				<line x1="22" y1="0" x2="28" y2="0" stroke="#1A1A1A" stroke-width="2.5"/>
			</g>

			<text x="145" y="1126" font-size="13" font-weight="800" fill="#1A1A1A">Live, daily</text>
			<text x="145" y="1146" font-size="12" fill="#333">advisory lock 73952</text>
			<text x="145" y="1163" font-size="12" fill="#333">SHA-256 dedup</text>
			<text x="80" y="1198" font-size="12" fill="#333">8 source adapters fan out and</text>
			<text x="80" y="1216" font-size="12" fill="#333">write into articles_raw.</text>
		</g>

		<!-- Sub-box: Backfill -->
		<g>
			<rect x="380" y="1060" width="300" height="170" rx="10" fill="#FFFFFF" stroke="#7FC4B4" stroke-width="2"/>
			<rect x="380" y="1060" width="300" height="32" rx="10" fill="#D4EBC8"/>
			<rect x="380" y="1080" width="300" height="12" fill="#D4EBC8"/>
			<text x="530" y="1082" font-size="16" font-weight="800" fill="#1A1A1A" text-anchor="middle">Backfill Worker</text>

			<g transform="translate(420, 1145)">
				<circle cx="0" cy="0" r="20" fill="#7FC4B4" stroke="#1A1A1A" stroke-width="2.5"/>
				<circle cx="0" cy="0" r="7" fill="#FFF"/>
				<line x1="0" y1="-22" x2="0" y2="-28" stroke="#1A1A1A" stroke-width="2.5"/>
				<line x1="0" y1="22" x2="0" y2="28" stroke="#1A1A1A" stroke-width="2.5"/>
				<line x1="-22" y1="0" x2="-28" y2="0" stroke="#1A1A1A" stroke-width="2.5"/>
				<line x1="22" y1="0" x2="28" y2="0" stroke="#1A1A1A" stroke-width="2.5"/>
			</g>

			<text x="465" y="1126" font-size="13" font-weight="800" fill="#1A1A1A">Historical</text>
			<text x="465" y="1146" font-size="12" fill="#333">advisory lock 73953</text>
			<text x="465" y="1163" font-size="12" fill="#333">composite hash dedup</text>
			<text x="400" y="1198" font-size="12" fill="#333">Walks Wayback CDX back to</text>
			<text x="400" y="1216" font-size="12" fill="#333">2022-12-01.</text>
		</g>
	</g>

	<!-- Pipeline Runner -->
	<g>
		<rect x="730" y="950" width="320" height="200" rx="14" fill="#F9EAEF" stroke="#D88AA0" stroke-width="2"/>
		<rect x="730" y="950" width="320" height="46" rx="14" fill="#F2D5DD"/>
		<rect x="730" y="978" width="320" height="18" fill="#F2D5DD"/>
		<text x="890" y="982" font-size="20" font-weight="800" fill="#1A1A1A" text-anchor="middle">Pipeline Runner</text>

		<g transform="translate(800, 1080)">
			<circle cx="0" cy="-20" r="11" fill="#F4C5B5" stroke="#1A1A1A" stroke-width="2.5"/>
			<path d="M 0 -8 L 0 16" stroke="#1A1A1A" stroke-width="3.5" stroke-linecap="round"/>
			<path d="M 0 0 L -12 10" stroke="#1A1A1A" stroke-width="3.5" stroke-linecap="round"/>
			<path d="M 0 0 L 16 4" stroke="#1A1A1A" stroke-width="3.5" stroke-linecap="round"/>
			<path d="M 0 16 L -10 32" stroke="#1A1A1A" stroke-width="3.5" stroke-linecap="round"/>
			<path d="M 0 16 L 14 30" stroke="#1A1A1A" stroke-width="3.5" stroke-linecap="round"/>
		</g>

		<text x="850" y="1032" font-size="13" fill="#333">Loads .pipe files from the</text>
		<text x="850" y="1052" font-size="13" fill="#333">active app, threads operator</text>
		<text x="850" y="1072" font-size="13" fill="#333">and voice context, streams</text>
		<text x="850" y="1092" font-size="13" fill="#333">pipelines to RocketRide over</text>
		<text x="850" y="1112" font-size="13" fill="#333">WebSocket.</text>
		<text x="850" y="1136" font-size="12" font-style="italic" fill="#777">trend-report, content-drafts</text>
	</g>

	<!-- =========================== ROW 5: RocketRide =========================== -->
	<g>
		<rect x="730" y="1180" width="320" height="160" rx="14" fill="#E1F1E8" stroke="#5BA89A" stroke-width="2"/>
		<rect x="730" y="1180" width="320" height="46" rx="14" fill="#C8E6D9"/>
		<rect x="730" y="1208" width="320" height="18" fill="#C8E6D9"/>
		<text x="890" y="1212" font-size="20" font-weight="800" fill="#1A1A1A" text-anchor="middle">RocketRide</text>

		<g transform="translate(778, 1278)">
			<circle cx="0" cy="0" r="22" fill="#4A90C2" stroke="#1A1A1A" stroke-width="2.5"/>
			<circle cx="0" cy="0" r="9" fill="#FFF"/>
		</g>
		<g transform="translate(820, 1306)">
			<circle cx="0" cy="0" r="14" fill="#4A90C2" stroke="#1A1A1A" stroke-width="2.5"/>
			<circle cx="0" cy="0" r="6" fill="#FFF"/>
		</g>

		<text x="900" y="1258" font-size="13" fill="#333">Pipeline runtime on</text>
		<text x="900" y="1278" font-size="13" fill="#333">WebSocket port 5565.</text>
		<text x="900" y="1298" font-size="13" fill="#333">Calls Claude Sonnet 4.6</text>
		<text x="900" y="1318" font-size="13" fill="#333">via llm_anthropic.</text>
	</g>

	<!-- =========================== ROW 6: Storage + Config =========================== -->

	<!-- PostgreSQL -->
	<g transform="translate(150, 1400)">
		<rect x="-50" y="0" width="100" height="22" rx="3" fill="#4A90C2" stroke="#1A1A1A" stroke-width="2.5"/>
		<rect x="-50" y="22" width="100" height="22" fill="#4A90C2" stroke="#1A1A1A" stroke-width="2.5"/>
		<rect x="-50" y="44" width="100" height="22" rx="3" fill="#4A90C2" stroke="#1A1A1A" stroke-width="2.5"/>
		<circle cx="-30" cy="11" r="3.5" fill="#7AC07A"/>
		<circle cx="-30" cy="33" r="3.5" fill="#7AC07A"/>
		<circle cx="-30" cy="55" r="3.5" fill="#7AC07A"/>
		<text x="0" y="92" font-size="16" font-weight="900" fill="#1A1A1A" text-anchor="middle">PostgreSQL 16</text>
		<text x="0" y="112" font-size="12" fill="#555" text-anchor="middle">articles_raw, report_data JSONB</text>
	</g>

	<!-- Operator Config (Message Broker slot) -->
	<g transform="translate(540, 1410)">
		<rect x="-130" y="0" width="260" height="50" rx="25" fill="#F5E8FA" stroke="#1A1A1A" stroke-width="2.5"/>
		<g transform="translate(-80, 25)">
			<rect x="-12" y="-10" width="24" height="20" fill="#FFF" stroke="#1A1A1A" stroke-width="1.5"/>
			<path d="M -12 -10 L 0 0 L 12 -10" fill="none" stroke="#1A1A1A" stroke-width="1.5"/>
		</g>
		<g transform="translate(-30, 25)">
			<rect x="-12" y="-10" width="24" height="20" fill="#FFF" stroke="#1A1A1A" stroke-width="1.5"/>
			<path d="M -12 -10 L 0 0 L 12 -10" fill="none" stroke="#1A1A1A" stroke-width="1.5"/>
		</g>
		<g transform="translate(20, 25)">
			<rect x="-12" y="-10" width="24" height="20" fill="#FFF" stroke="#1A1A1A" stroke-width="1.5"/>
			<path d="M -12 -10 L 0 0 L 12 -10" fill="none" stroke="#1A1A1A" stroke-width="1.5"/>
		</g>
		<g transform="translate(70, 25)">
			<rect x="-12" y="-10" width="24" height="20" fill="#FFF" stroke="#1A1A1A" stroke-width="1.5"/>
			<path d="M -12 -10 L 0 0 L 12 -10" fill="none" stroke="#1A1A1A" stroke-width="1.5"/>
		</g>
		<text x="0" y="76" font-size="16" font-weight="900" fill="#1A1A1A" text-anchor="middle">Operator Config</text>
		<text x="0" y="96" font-size="12" fill="#555" text-anchor="middle">.context and .voice (gitignored)</text>
	</g>

	<!-- Neo4j -->
	<g transform="translate(940, 1400)">
		<rect x="-50" y="0" width="100" height="22" rx="3" fill="#4A90C2" stroke="#1A1A1A" stroke-width="2.5"/>
		<rect x="-50" y="22" width="100" height="22" fill="#4A90C2" stroke="#1A1A1A" stroke-width="2.5"/>
		<rect x="-50" y="44" width="100" height="22" rx="3" fill="#4A90C2" stroke="#1A1A1A" stroke-width="2.5"/>
		<circle cx="-30" cy="11" r="3.5" fill="#7AC07A"/>
		<circle cx="-30" cy="33" r="3.5" fill="#7AC07A"/>
		<circle cx="-30" cy="55" r="3.5" fill="#7AC07A"/>
		<text x="0" y="92" font-size="16" font-weight="900" fill="#1A1A1A" text-anchor="middle">Neo4j 5.x</text>
		<text x="0" y="112" font-size="12" fill="#555" text-anchor="middle">graph relationships</text>
	</g>

	<text x="540" y="1545" font-size="13" fill="#555" font-style="italic" text-anchor="middle">Dedicated storage and config per concern: Postgres for content and reports, Neo4j for the graph, .context plus .voice for operator identity.</text>

	<!-- =========================== Edges (dashed) =========================== -->
	<g stroke="#444" stroke-width="2" fill="none" stroke-dasharray="6 5" marker-end="url(#arrow)" stroke-linecap="round">
		<!-- Users -> Web App -->
		<path d="M 295 520 L 295 545 L 230 545 L 230 790"/>
		<!-- Identity -> Web App -->
		<path d="M 815 760 L 815 790"/>
		<!-- Web App -> Identity (auth back-channel) -->
		<path d="M 850 790 L 850 760"/>
		<!-- Public Sources -> Scraper -->
		<path d="M 660 430 Q 660 510 540 510 Q 230 510 230 1060"/>
		<!-- Wayback -> Backfill Worker -->
		<path d="M 945 430 Q 945 500 700 500 Q 530 500 530 1060"/>
		<!-- Scheduler -> Scraper -->
		<path d="M 140 760 L 140 1040 L 195 1040 L 195 1060"/>
		<!-- Scheduler -> Backfill -->
		<path d="M 220 760 L 220 1040 L 425 1040 L 425 1060"/>
		<!-- Scheduler -> Pipeline Runner -->
		<path d="M 550 660 L 730 1010"/>
		<!-- Pipeline Runner -> RocketRide -->
		<path d="M 890 1150 L 890 1180"/>
		<!-- Pipeline Runner -> Operator Config -->
		<path d="M 730 1080 Q 680 1080 670 1410"/>
		<!-- Web App -> Postgres -->
		<path d="M 350 920 L 350 1390 L 200 1390 L 150 1400"/>
		<!-- Web App -> Neo4j -->
		<path d="M 950 920 L 950 1400"/>
		<!-- Scraper -> Postgres -->
		<path d="M 195 1230 L 195 1340 L 150 1340 L 150 1400"/>
		<!-- Backfill -> Postgres -->
		<path d="M 425 1230 L 425 1330 L 150 1330 L 150 1400"/>
		<!-- Pipeline Runner -> Postgres -->
		<path d="M 730 1100 L 270 1100 L 150 1380 L 150 1400"/>
	</g>
</svg>
